<svg xmlns="http://www.w3.org/2000/svg" viewBox="0 0 128 128">
  <rect width="128" height="128" fill="none"/>
  <ellipse cx="64" cy="96" rx="52" ry="13" fill="#b98e83" opacity=".18"/>
  <path d="M19 72c1-18 16-36 36-39 6-14 25-16 36-4 15 5 24 18 21 37 13 21-10 45-49 45-36 0-60-18-44-39Z" fill="#f8fcff"/>
  <path d="M29 67c4-14 16-23 32-24 10-16 35-11 42 9" fill="none" stroke="#ffffff" stroke-width="12" stroke-linecap="round" opacity=".75"/>
  <path d="M36 72c5-10 19-12 29-6 8-13 28-13 37-1" fill="none" stroke="#dfeaf6" stroke-width="6" stroke-linecap="round"/>
  <circle cx="45" cy="55" r="6" fill="#fff"/>
  <circle cx="63" cy="45" r="7" fill="#fff"/>
  <circle cx="83" cy="54" r="6" fill="#fff"/>
  <path d="M21 82c14 21 70 25 86 0v20c-10 16-77 17-86 0Z" fill="#f5b4b9"/>
  <path d="M28 100c16 12 57 13 73 0" fill="none" stroke="#d98591" stroke-width="5" stroke-linecap="round"/>
</svg>
